<svg width="28" height="29" viewBox="0 0 28 29" fill="none" xmlns="http://www.w3.org/2000/svg">
<path d="M27.1797 13.6504H0.820312C0.367281 13.6504 0 14.0308 0 14.5C0 18.9606 2.6145 22.9804 6.5625 24.6856V26.3945C6.5625 26.8637 6.92978 27.2441 7.38281 27.2441H20.6172C21.0702 27.2441 21.4375 26.8637 21.4375 26.3945V24.6856C25.405 22.9719 28 18.9397 28 14.5C28 14.0308 27.6327 13.6504 27.1797 13.6504ZM26.3218 15.3496C26.2703 15.9302 26.1659 16.4985 26.0142 17.0488H1.98581C1.83405 16.4985 1.72966 15.9302 1.6782 15.3496H26.3218ZM20.3434 23.3018C20.0158 23.4219 19.7969 23.7428 19.7969 24.1027V25.5449H8.20312V24.1027C8.20312 23.7428 7.98416 23.4219 7.65658 23.3018C5.43528 22.4873 3.66499 20.8271 2.63452 18.748H25.3655C24.3351 20.8271 22.5647 22.4873 20.3434 23.3018Z" fill="#A4A4A4"/>
<path d="M8.49846 10.0031C8.81876 10.3349 9.33819 10.335 9.65855 10.0031C10.8831 8.73486 10.8831 6.67139 9.65855 5.40315C9.0724 4.79602 9.07235 3.81341 9.65855 3.20623C9.9789 2.87443 9.9789 2.33651 9.65855 2.00471C9.33824 1.67291 8.81882 1.67291 8.49846 2.00471C7.27395 3.27295 7.27395 5.33642 8.49846 6.60466C9.0846 7.2118 9.08465 8.1944 8.49846 8.80158C8.1781 9.13338 8.1781 9.6713 8.49846 10.0031Z" fill="#A4A4A4"/>
<path d="M13.4203 10.0031C13.7406 10.3349 14.2601 10.335 14.5804 10.0031C15.8049 8.73486 15.8049 6.67139 14.5804 5.40315C13.9943 4.79602 13.9942 3.81341 14.5804 3.20623C14.9008 2.87443 14.9008 2.33651 14.5804 2.00471C14.2601 1.67291 13.7407 1.67291 13.4203 2.00471C12.1958 3.27295 12.1958 5.33642 13.4203 6.60466C14.0065 7.2118 14.0065 8.1944 13.4203 8.80158C13.1 9.13338 13.1 9.6713 13.4203 10.0031Z" fill="#A4A4A4"/>
<path d="M18.3422 10.0031C18.6625 10.3349 19.1819 10.335 19.5023 10.0031C20.7268 8.73486 20.7268 6.67139 19.5023 5.40315C18.9162 4.79607 18.9161 3.81341 19.5023 3.20623C19.8226 2.87443 19.8226 2.33651 19.5023 2.00471C19.182 1.67291 18.6626 1.67291 18.3422 2.00471C17.1177 3.27295 17.1177 5.33642 18.3422 6.60466C18.9283 7.21174 18.9284 8.19445 18.3422 8.80158C18.0218 9.13338 18.0218 9.6713 18.3422 10.0031Z" fill="#A4A4A4"/>
</svg>
