<svg width="29" height="29" viewBox="0 0 29 29" fill="none" xmlns="http://www.w3.org/2000/svg">
<g clip-path="url(#clip0)">
<path d="M28.1276 10.3829H26.0196C27.2151 8.75338 27.0769 6.44449 25.6046 4.97223C25.4411 4.80866 25.2192 4.71673 24.9879 4.71673C24.7565 4.71673 24.5346 4.8086 24.3711 4.97223L22.1164 7.22692C22.1922 6.48057 22.1437 5.93144 22.1387 5.87956C22.0989 5.46336 21.7694 5.13389 21.3533 5.09412C21.2307 5.08246 18.3325 4.82718 16.6157 6.54395C16.3563 6.80342 16.142 7.09002 15.965 7.38982C15.309 6.63962 14.3459 6.1644 13.2734 6.1644C13.2002 6.1644 13.1274 6.16655 13.055 6.17092C12.8137 4.43177 11.3171 3.08826 9.51249 3.08826C7.70793 3.08826 6.21126 4.43171 5.96997 6.17092C5.89752 6.16655 5.82474 6.1644 5.75162 6.1644C3.77956 6.1644 2.17511 7.7688 2.17511 9.74091V10.3829H0.872321C0.390593 10.3829 0 10.7734 0 11.2552C0 13.5223 0.508972 15.6938 1.5127 17.7094C2.40558 19.5024 3.68605 21.1173 5.23058 22.404V25.0393C5.23058 25.521 5.62112 25.9116 6.1029 25.9116H22.897C23.3788 25.9116 23.7694 25.521 23.7694 25.0393V22.404C25.3139 21.1174 26.5944 19.5024 27.4873 17.7094C28.4911 15.6938 29.0001 13.5223 29.0001 11.2552C28.9999 10.7734 28.6095 10.3829 28.1276 10.3829ZM24.873 6.93749C25.2657 7.82658 25.0984 8.90518 24.371 9.63267C23.6435 10.3602 22.5648 10.5273 21.6758 10.1347L24.873 6.93749ZM17.8493 7.77752C18.5498 7.07705 19.6552 6.8804 20.4 6.83259C20.3522 7.57804 20.1555 8.68298 19.4551 9.38334C18.7551 10.0834 17.6509 10.2802 16.906 10.3282C16.9549 9.58192 17.1524 8.47437 17.8493 7.77752ZM3.91958 9.74085C3.91958 8.73078 4.74138 7.90899 5.75145 7.90899C6.01755 7.90899 6.27458 7.96523 6.51553 8.07608C6.81827 8.21541 7.17392 8.16999 7.43192 7.95923C7.69003 7.74847 7.80552 7.40908 7.72951 7.08464C7.69699 6.94582 7.68045 6.80455 7.68045 6.66471C7.68045 5.65464 8.50225 4.83284 9.51232 4.83284C10.5224 4.83284 11.3442 5.65464 11.3442 6.66471C11.3442 6.8045 11.3277 6.94576 11.2951 7.08453C11.2191 7.40896 11.3346 7.74835 11.5927 7.95917C11.8508 8.16993 12.2064 8.21524 12.5091 8.07608C12.7501 7.96523 13.0071 7.90899 13.2732 7.90899C14.2833 7.90899 15.1051 8.73078 15.1051 9.74085V10.3829H3.91958V9.74085ZM22.0247 24.167H6.97517V22.8601H22.0247V24.167H22.0247ZM22.5906 21.1155H6.40927C3.66651 18.865 2.00978 15.6401 1.77381 12.1274H3.04279C3.04431 12.1274 3.04573 12.1276 3.04726 12.1276H15.9774C15.9789 12.1276 15.9803 12.1274 15.9819 12.1274H27.226C26.9901 15.6401 25.3334 18.865 22.5906 21.1155Z" fill="#A4A4A4"/>
</g>
<defs>
<clipPath id="clip0">
<rect width="29" height="29" fill="white"/>
</clipPath>
</defs>
</svg>
