<svg width="29" height="29" viewBox="0 0 29 29" fill="none" xmlns="http://www.w3.org/2000/svg">
<g clip-path="url(#clip0)">
<path d="M16.9748 14.6699C18.7648 14.6699 20.2211 13.2207 20.2211 11.4394C20.2211 9.65813 18.7648 8.20898 16.9748 8.20898C15.1847 8.20898 13.7285 9.65813 13.7285 11.4394C13.7285 13.2207 15.1847 14.6699 16.9748 14.6699ZM16.9748 9.9082C17.8279 9.9082 18.5218 10.5951 18.5218 11.4394C18.5218 12.2838 17.8278 12.9706 16.9748 12.9706C16.1217 12.9706 15.4277 12.2838 15.4277 11.4394C15.4277 10.5951 16.1217 9.9082 16.9748 9.9082Z" fill="#A4A4A4"/>
<path d="M28.8281 4.14802C28.5752 3.39674 28.0128 2.78564 27.2852 2.4714C23.5412 0.854594 19.1204 0 14.5008 0C9.8812 0 5.46051 0.854594 1.71639 2.4714C0.988844 2.78564 0.426459 3.39674 0.173559 4.14796C-0.0798512 4.90077 -0.00129062 5.72937 0.38919 6.42135L12.4582 27.8098C12.8787 28.5551 13.6424 29 14.5008 29C15.3593 29 16.1229 28.5551 16.5434 27.8098L28.6124 6.4214C29.0028 5.72943 29.0815 4.90083 28.8281 4.14802ZM6.33 12.8456C6.33 11.7278 7.24797 10.8184 8.37631 10.8184C9.50471 10.8184 10.4227 11.7278 10.4227 12.8456C10.4227 13.9634 9.50471 14.8728 8.37631 14.8728C7.24797 14.8728 6.33 13.9634 6.33 12.8456ZM16.3206 22.1228C15.1922 22.1228 14.2742 21.2134 14.2742 20.0956C14.2742 18.9778 15.1922 18.0684 16.3206 18.0684C17.4489 18.0684 18.3669 18.9778 18.3669 20.0956C18.3669 21.2134 17.4489 22.1228 16.3206 22.1228ZM19.7676 18.6383C19.1963 17.3057 17.8664 16.3691 16.3206 16.3691C14.2553 16.3691 12.575 18.0408 12.575 20.0956C12.575 22.1503 14.2553 23.822 16.3206 23.822C16.5055 23.822 16.6872 23.8081 16.865 23.7822L15.0635 26.9748C14.8975 27.269 14.6147 27.3008 14.5008 27.3008C14.3869 27.3008 14.1041 27.269 13.938 26.9748L8.05997 16.5578C8.16436 16.5665 8.26971 16.572 8.37631 16.572C10.4417 16.572 12.1219 14.9003 12.1219 12.8456C12.1219 10.7908 10.4417 9.11914 8.37631 9.11914C6.91187 9.11914 5.64187 9.96008 5.02636 11.1817L3.71564 8.85888C6.7659 7.30936 10.5588 6.46253 14.5008 6.46253C18.4427 6.46253 22.2358 7.30936 25.286 8.85888L19.7676 18.6383ZM27.1326 5.58629L26.1214 7.37835C22.8226 5.68797 18.7336 4.76325 14.5008 4.76325C10.2679 4.76325 6.17905 5.68802 2.88024 7.3784L1.8691 5.58635C1.71282 5.30949 1.68264 4.99123 1.78402 4.69013C1.88484 4.39061 2.10008 4.15669 2.39008 4.03145C5.92321 2.50567 10.111 1.69922 14.5008 1.69922C18.8906 1.69922 23.0785 2.50567 26.6115 4.0314C26.9016 4.15663 27.1168 4.39055 27.2176 4.69007C27.319 4.99117 27.2888 5.30949 27.1326 5.58629Z" fill="#A4A4A4"/>
</g>
<defs>
<clipPath id="clip0">
<rect width="29" height="29" fill="white"/>
</clipPath>
</defs>
</svg>
