<svg width="29" height="29" viewBox="0 0 29 29" fill="none" xmlns="http://www.w3.org/2000/svg">
<g clip-path="url(#clip0)">
<path d="M29 12.4856C28.9884 6.3602 23.8861 1.31454 17.7888 1.34092C12.4343 1.36219 8.13755 5.10222 6.98193 9.8663C6.74589 10.8394 5.96721 11.5745 4.99822 11.739C2.24907 12.2056 -0.0155999 14.4847 0.0124335 18.0441C-0.00132732 22.7811 3.73874e-05 18.6992 3.73874e-05 22.8997C3.73874e-05 25.524 2.13512 27.6591 4.75945 27.6591H17.8338C23.8926 27.6591 28.9988 23.7 28.9988 20.7713C28.9988 20.7694 29 12.4856 29 12.4856ZM5.28367 13.4208C6.92552 13.1422 8.24286 11.9048 8.63971 10.2684C9.66688 6.03369 13.4319 3.06409 17.7955 3.04681C17.808 3.04675 17.8201 3.04675 17.8325 3.04675C22.9846 3.04675 27.2843 7.33392 27.294 12.4889C27.3039 17.7246 23.0704 21.9673 17.8337 21.9673H6.00958C3.74223 21.9673 1.88015 20.2046 1.7186 17.9777C1.72633 15.3371 3.30052 13.7574 5.28367 13.4208ZM27.293 20.7714C27.293 22.4193 23.2645 25.9533 17.8338 25.9533H4.75945C3.07574 25.9533 1.70592 24.5835 1.70592 22.8998C1.70592 22.1791 1.70564 22.4168 1.70728 21.8548C2.79956 22.9758 4.32456 23.6731 6.00963 23.6731H17.8338C21.8125 23.6731 25.3015 21.6049 27.293 18.448V20.7714Z" fill="#A4A4A4"/>
<path d="M5.86635 20.6679C18.9509 20.6679 18.1837 20.6725 18.2772 20.6586C22.5397 20.4602 25.9266 16.9461 25.9266 12.6392C25.9266 8.21216 22.3249 4.61047 17.8978 4.61047C14.3288 4.61047 11.4254 6.87657 10.3248 9.98014C9.42687 12.5127 7.42689 14.4328 4.97491 15.1163C3.65797 15.4834 2.99023 16.3836 2.99023 17.7918C2.99023 19.3777 4.28045 20.6679 5.86635 20.6679ZM5.43306 16.7595C8.41943 15.927 10.8492 13.6058 11.9327 10.5502C12.8447 7.97828 15.1862 6.31636 17.8979 6.31636C21.3843 6.31636 24.2207 9.15278 24.2207 12.6392C24.2207 16.0636 21.5417 18.839 18.1215 18.9576C17.9301 18.9642 19.2332 18.9621 5.86635 18.9621C5.22107 18.9621 4.69612 18.4371 4.69612 17.7918C4.69612 17.0798 4.91333 16.9044 5.43306 16.7595Z" fill="#A4A4A4"/>
<path d="M18.7596 13.7592C20.2306 13.7592 21.4274 12.5624 21.4274 11.0914C21.4274 9.62037 20.2306 8.42358 18.7596 8.42358C17.2886 8.42358 16.0918 9.62037 16.0918 11.0914C16.0918 12.5624 17.2886 13.7592 18.7596 13.7592ZM18.7596 10.1295C19.29 10.1295 19.7215 10.561 19.7215 11.0914C19.7215 11.6218 19.29 12.0533 18.7596 12.0533C18.2292 12.0533 17.7977 11.6218 17.7977 11.0914C17.7977 10.561 18.2292 10.1295 18.7596 10.1295Z" fill="#A4A4A4"/>
</g>
<defs>
<clipPath id="clip0">
<rect width="29" height="29" fill="white"/>
</clipPath>
</defs>
</svg>
