<svg width="29" height="29" viewBox="0 0 29 29" fill="none" xmlns="http://www.w3.org/2000/svg">
<g clip-path="url(#clip0)">
<path d="M28.1404 0.804919C26.2743 -1.06128 19.4406 0.427723 14.395 4.13293C13.4284 3.34641 11.8537 2.73554 9.35437 3.23552C6.62426 3.78157 5.34122 6.72638 4.72599 9.43343C4.14492 11.9901 4.13824 14.3936 4.13824 14.4947C4.13824 14.9975 4.57493 15.3939 5.0812 15.3395C5.09684 15.3377 6.41127 15.1994 7.70836 15.4177C7.47956 16.7297 7.37293 17.9302 7.3272 18.8922C6.41064 19.1953 4.1673 19.7306 1.01857 19.1007C0.493661 18.996 0.00195312 19.3972 0.00195312 19.9342C0.00195312 21.7277 0.589532 23.302 1.61391 24.2533C2.69286 25.2552 3.74756 26.3098 4.74871 27.388C5.7 28.4125 7.27422 29 9.06778 29C9.60386 29 10.0063 28.5088 9.90116 27.9834C9.27137 24.8348 9.80659 22.5914 10.1096 21.6749C10.7635 21.6442 11.5188 21.5863 12.339 21.483C12.7083 23.5764 13.7366 25.2817 13.7863 25.363C13.9793 25.6794 14.353 25.8323 14.7097 25.7469C14.905 25.7002 19.5078 24.5632 20.9073 21.1969C21.3422 20.1504 21.597 19.0617 21.6529 18.0219C27.468 13.4548 30.6375 3.30187 28.1404 0.804919ZM5.87032 13.5961C6.03436 10.7149 6.8602 5.46793 9.68783 4.90239C11.0625 4.62724 12.193 4.74476 13.0135 5.23879C12.6721 5.5366 12.3337 5.85079 12.0008 6.18379C9.9564 8.22813 8.74368 10.9577 8.05632 13.7536C7.2532 13.6125 6.46124 13.5863 5.87032 13.5961ZM8.05082 27.2176C7.17846 27.0698 6.45558 26.728 5.99441 26.2313C4.96487 25.1226 3.88026 24.0379 2.77066 23.0076C2.27396 22.5464 1.93218 21.8235 1.78435 20.9512C4.25558 21.2817 6.15907 20.977 7.30425 20.6715C7.31201 20.9395 7.31201 21.1934 7.56025 21.4417C7.81658 21.698 8.08856 21.6907 8.33045 21.6977C8.02504 22.843 7.72032 24.7468 8.05082 27.2176ZM19.3377 20.5446C18.5311 22.4845 16.0893 23.5158 14.9333 23.9066C14.6413 23.3127 14.2169 22.3177 14.0183 21.2178C15.9971 20.8393 17.9898 20.2116 19.7601 19.2512C19.6568 19.6828 19.5154 20.1169 19.3377 20.5446ZM20.3176 16.9008C17.2694 19.0998 12.7691 19.9852 8.99707 20.0049C9.02041 15.71 10.141 10.4475 13.2029 7.38558C14.3113 6.27677 15.6296 5.2674 17.0617 4.41346C17.9788 7.59675 21.3899 11.0023 24.5978 11.9381C23.1732 14.3174 21.5195 16.0325 20.3176 16.9008ZM27.2695 4.34065C27.1395 5.90643 26.5701 8.09758 25.4355 10.4002C22.6217 9.81913 19.1931 6.39791 18.6038 3.57634C20.5704 2.60902 23.2582 1.69773 25.4275 1.69773C26.3727 1.69773 26.8212 1.88959 26.9385 2.00688C27.1619 2.23035 27.3827 2.97562 27.2695 4.34065Z" fill="#A4A4A4"/>
<path d="M23.9528 4.3562C23.9047 4.1257 23.772 3.93492 23.5913 3.81565C23.1445 3.52203 22.5772 3.70924 22.3702 4.12218C22.1425 4.54873 22.319 5.06248 22.7193 5.27128C23.3355 5.60184 24.088 5.07948 23.9528 4.3562Z" fill="#A4A4A4"/>
</g>
<defs>
<clipPath id="clip0">
<rect width="29" height="29" fill="white"/>
</clipPath>
</defs>
</svg>
