<svg width="29" height="29" viewBox="0 0 29 29" fill="none" xmlns="http://www.w3.org/2000/svg">
<g clip-path="url(#clip0)">
<path d="M29 14.5011V12.2249C29 12.1204 28.9787 9.63814 27.1238 7.16498C26.0451 5.7267 24.5691 4.58449 22.7367 3.77011C20.5045 2.77805 17.7332 2.27502 14.5 2.27502C11.2668 2.27502 8.49553 2.77805 6.26332 3.77011C4.43094 4.58449 2.95494 5.7267 1.87622 7.16498C0.0212968 9.63814 0 12.1204 0 12.2249V14.5011C0 15.397 0.379605 16.2053 0.985717 16.7754C0.379605 17.3456 0 18.1541 0 19.0501C0 19.8796 0.32557 20.6341 0.85482 21.1941C0.329479 21.6833 0 22.3802 0 23.153C0 25.1225 1.60236 26.7249 3.57187 26.7249H25.4281C27.3976 26.7249 29 25.1225 29 23.153C29 22.3802 28.6705 21.6833 28.1452 21.1941C28.6744 20.6341 29 19.8796 29 19.0501C29 18.1541 28.6204 17.3456 28.0143 16.7754C28.6204 16.2053 29 15.3969 29 14.5011ZM7.4509 17.6246H21.5491L14.5 24.6737L7.4509 17.6246ZM23.9521 17.6246H25.8753C26.6613 17.6246 27.3008 18.264 27.3008 19.0501C27.3008 19.8361 26.6613 20.4755 25.8753 20.4755H21.1012L23.9521 17.6246ZM5.04787 17.6246L7.89876 20.4755H3.12469C2.33869 20.4755 1.69922 19.8361 1.69922 19.0501C1.69922 18.264 2.33869 17.6246 3.12469 17.6246H5.04787ZM1.69922 23.153C1.69922 22.6136 2.13807 22.1747 2.67746 22.1747H9.59798L12.4489 25.0256H3.57187C2.53931 25.0256 1.69922 24.1855 1.69922 23.153ZM25.4281 25.0256H16.5511L19.402 22.1747H26.3225C26.8619 22.1747 27.3008 22.6135 27.3008 23.153C27.3008 24.1855 26.4607 25.0256 25.4281 25.0256ZM3.12469 15.9254H3.1235C2.33812 15.9254 1.69922 15.2865 1.69922 14.5011V12.2287C1.69939 12.208 1.73621 10.1349 3.29229 8.10974C5.37117 5.4043 9.2467 3.97424 14.5 3.97424C19.7533 3.97424 23.6288 5.40431 25.7077 8.1098C27.2638 10.135 27.3006 12.208 27.3008 12.2249V14.5011C27.3008 15.2865 26.6619 15.9254 25.8765 15.9254H25.8753H3.12469Z" fill="#A4A4A4"/>
<path d="M14.5007 8.53149C14.0563 8.53149 13.6305 8.92226 13.6511 9.3811C13.6717 9.84142 14.0244 10.2307 14.5007 10.2307C14.9451 10.2307 15.3709 9.83995 15.3503 9.3811C15.3297 8.92079 14.977 8.53149 14.5007 8.53149Z" fill="#A4A4A4"/>
<path d="M19.6199 6.25635C19.1755 6.25635 18.7497 6.64711 18.7702 7.10595C18.7909 7.56627 19.1436 7.95556 19.6199 7.95556C20.0643 7.95556 20.49 7.5648 20.4695 7.10595C20.4488 6.64564 20.0961 6.25635 19.6199 6.25635Z" fill="#A4A4A4"/>
<path d="M9.38158 6.25635C8.93717 6.25635 8.51141 6.64711 8.53197 7.10595C8.55258 7.56627 8.90528 7.95556 9.38158 7.95556C9.82598 7.95556 10.2517 7.5648 10.2312 7.10595C10.2106 6.64564 9.85787 6.25635 9.38158 6.25635Z" fill="#A4A4A4"/>
</g>
<defs>
<clipPath id="clip0">
<rect width="29" height="29" fill="white"/>
</clipPath>
</defs>
</svg>
