<svg width="20" height="20" viewBox="0 0 20 20" fill="none" xmlns="http://www.w3.org/2000/svg">
<g clip-path="url(#clip0)">
<path d="M0.284546 1.66898C-0.0904541 1.29398 -0.0904541 0.66985 0.284546 0.281738C0.672658 -0.0932617 1.28367 -0.0932617 1.67178 0.281738L9.99608 8.62003L18.3344 0.281738C18.7094 -0.0932617 19.3335 -0.0932617 19.7076 0.281738C20.0957 0.66985 20.0957 1.29485 19.7076 1.66898L11.3833 9.99415L19.7076 18.3324C20.0957 18.7074 20.0957 19.3316 19.7076 19.7197C19.3326 20.0947 18.7085 20.0947 18.3344 19.7197L9.99608 11.3814L1.67178 19.7197C1.28367 20.0947 0.672658 20.0947 0.284546 19.7197C-0.0904541 19.3316 -0.0904541 18.7066 0.284546 18.3324L8.60885 9.99415L0.284546 1.66898Z" fill="#1E201D"/>
</g>
<defs>
<clipPath id="clip0">
<rect width="20" height="20" fill="white"/>
</clipPath>
</defs>
</svg>
