<svg width="20" height="20" viewBox="0 0 20 20" fill="none" xmlns="http://www.w3.org/2000/svg">
<g clip-path="url(#clip0)">
<path d="M0.284607 1.66898C-0.0903931 1.29398 -0.0903931 0.66985 0.284607 0.281738C0.672719 -0.0932617 1.28373 -0.0932617 1.67184 0.281738L9.99615 8.62003L18.3344 0.281738C18.7094 -0.0932617 19.3336 -0.0932617 19.7077 0.281738C20.0958 0.66985 20.0958 1.29485 19.7077 1.66898L11.3834 9.99415L19.7077 18.3324C20.0958 18.7074 20.0958 19.3316 19.7077 19.7197C19.3327 20.0947 18.7086 20.0947 18.3344 19.7197L9.99615 11.3814L1.67184 19.7197C1.28373 20.0947 0.672719 20.0947 0.284607 19.7197C-0.0903931 19.3316 -0.0903931 18.7066 0.284607 18.3324L8.60891 9.99415L0.284607 1.66898Z" fill="white"/>
</g>
<defs>
<clipPath id="clip0">
<rect width="20" height="20" fill="white"/>
</clipPath>
</defs>
</svg>
