<svg width="28" height="28" viewBox="0 0 28 28" fill="none" xmlns="http://www.w3.org/2000/svg">
<path d="M23.3516 11.1016C20.7884 11.1016 18.7031 8.9942 18.7031 6.40389C18.7031 4.4189 18.9689 1.14324 18.9802 1.00478C19.0293 0.402724 19.5581 -0.045165 20.1593 0.00372538C20.7614 0.0528892 21.2096 0.58084 21.1605 1.18289C21.1578 1.21592 20.8906 4.50853 20.8906 6.40389C20.8906 7.78802 21.9946 8.91409 23.3516 8.91409C24.7085 8.91409 25.8125 7.78802 25.8125 6.40389C25.8125 4.50722 25.5454 1.21592 25.5427 1.18289C25.4935 0.58084 25.9417 0.0528892 26.5437 0.00372538C27.1452 -0.0457119 27.6737 0.402669 27.723 1.00478C27.7343 1.14324 28 4.4189 28 6.40389C28 8.9942 25.9147 11.1016 23.3516 11.1016ZM24.4453 5.30473V1.09381C24.4453 0.489731 23.9556 6.13365e-05 23.3516 6.13365e-05C22.7475 6.13365e-05 22.2578 0.489731 22.2578 1.09381V5.30473C22.2578 5.9088 22.7475 6.39847 23.3516 6.39847C23.9556 6.39847 24.4453 5.9088 24.4453 5.30473ZM19.8115 26.7537C20.3616 26.504 20.605 25.8556 20.3552 25.3056C20.1056 24.7556 19.4573 24.5121 18.9072 24.7619C17.3934 25.4492 15.6965 25.8125 14 25.8125C7.48656 25.8125 2.1875 20.5135 2.1875 14.0001C2.1875 7.48664 7.48656 2.18761 14 2.18761C14.5365 2.18761 15.0759 2.22386 15.6031 2.29534C16.2013 2.37639 16.7526 1.95705 16.8339 1.35849C16.9151 0.759941 16.4956 0.208857 15.897 0.127701C15.2727 0.0430455 14.6345 0.000116024 14 0.000116024C10.2605 0.000116024 6.74477 1.45638 4.10047 4.10057C1.45622 6.74481 0 10.2605 0 14.0001C0 17.7396 1.45627 21.2553 4.10047 23.8995C6.74477 26.5438 10.2605 28 14 28C16.0062 27.9999 18.0158 27.569 19.8115 26.7537ZM14.2338 22.6928C14.8377 22.6784 15.3156 22.1773 15.3013 21.5734C15.2871 20.9695 14.7874 20.4923 14.1819 20.5059C14.1299 20.5071 14.078 20.5077 14.0261 20.5077C10.523 20.5077 7.63219 17.701 7.54873 14.1807C7.50766 12.4502 8.14308 10.8072 9.33784 9.55447C10.5326 8.30175 12.1439 7.58923 13.8747 7.54816C14.3994 7.53597 14.9795 7.60077 15.5532 7.73629C16.1416 7.87525 16.7303 7.51109 16.8692 6.92325C17.008 6.33536 16.644 5.74622 16.0561 5.60737C15.3034 5.42958 14.5309 5.34416 13.8228 5.36127C11.5079 5.41612 9.35298 6.36916 7.75491 8.04467C6.15683 9.72023 5.30693 11.9178 5.36189 14.2325C5.47356 18.9413 9.33964 22.6952 14.0254 22.6952C14.0944 22.6953 14.1644 22.6944 14.2338 22.6928ZM24.4453 26.9062V14.3828C24.4453 13.7787 23.9556 13.2891 23.3516 13.2891C22.7475 13.2891 22.2578 13.7787 22.2578 14.3828V26.9062C22.2578 27.5103 22.7475 27.9999 23.3516 27.9999C23.9556 27.9999 24.4453 27.5103 24.4453 26.9062Z" fill="#8AB889"/>
</svg>
